<svg width="120" height="30" viewBox="0 0 120 30" fill="none" xmlns="http://www.w3.org/2000/svg">
			<path fill="#CA60FF" fill-rule="evenodd" clip-rule="evenodd" d="M49,3.8h-4.2c-0.1,0-0.3,0.1-0.3,0.3l0.1,10.8V16c-0.8-4.2-3.6-6.7-8.1-6.7c-3.1,0-5.5,1.2-6.9,3.4V9.9
				c0-0.1-0.1-0.3-0.3-0.3h-3.6V5.8c0-0.1-0.1-0.3-0.3-0.3h-4.2c-0.1,0-0.3,0.1-0.3,0.3v3.8H19c-0.1,0-0.3,0.1-0.3,0.3v2.8
				c0,0.1,0.1,0.3,0.3,0.3h1.9v8.1v0.1L15.3,4c-0.1-0.2-0.2-0.3-0.3-0.3H9C8.8,3.8,8.7,3.9,8.7,4L1.2,25.5c-0.1,0.1,0,0.3,0.2,0.3
				h4.4c0.2,0,0.3-0.1,0.3-0.3l1.7-5.3H16l1.7,5.3c0,0.2,0.2,0.3,0.3,0.3h1.6h2.8h5.9v-0.1l0,0c0.1,0,0.2,0,0.3,0.1
				c0.3-0.1,0.5-0.1,0.8-0.2c0.2-0.1,0.3-0.2,0.3-0.3v-2.4c1.4,2.1,3.7,3.4,7,3.4c4.6,0,7.4-2.6,7.8-5.6c0-0.1-0.1-0.3-0.2-0.3h-4
				c-0.1,0-0.3,0.1-0.3,0.3c-0.4,1.8-1.5,2.5-3.1,2.5c-2.3,0-3.5-1.4-3.6-4.4h11.6l-0.1,6.9c0,0.1,0.1,0.3,0.3,0.3H49
				c0.1,0,0.3-0.1,0.3-0.3l-0.1-10.8V4C49.2,3.9,49.1,3.8,49,3.8z M8.9,16.4L11.7,7l3,9.4H8.9z M29.4,22.5c-0.5,0.2-1.1,0.3-1.9,0.3
				c-1,0-1.7-0.4-1.7-1.8v-8h3.6l0,0c-0.8,1.3-1.2,3-1.2,4.8C28.3,19.5,28.7,21.1,29.4,22.5L29.4,22.5z M33.2,15.7
				c0.4-2.2,1.5-3.4,3.4-3.4c2.1,0,3.1,1.6,3.2,3.4C39.8,15.7,33.2,15.7,33.2,15.7z"/>
			<path fill="#CA60FF" fill-rule="evenodd" clip-rule="evenodd" d="M50.2,8h4.3c0.1,0,0.3-0.1,0.3-0.3V4c0-0.1-0.1-0.3-0.3-0.3h-4.3c-0.1,0-0.3,0.1-0.3,0.3v3.7
				C49.9,7.9,50,8,50.2,8z"/>
			<path fill="#CA60FF" fill-rule="evenodd" clip-rule="evenodd" d="M81.5,9.5c-0.2,0-0.5-0.1-0.8-0.1c-2.4,0-4.5,0.9-5.8,2.9L75,9.8c0-0.1-0.1-0.3-0.3-0.3h-4.2
				c-0.1,0-0.3,0.1-0.3,0.3l0.1,5.2c-1-3.7-3.7-5.9-7.9-5.9c-4.1,0-6.9,2.2-7.9,5.7v-5c0-0.1-0.1-0.3-0.3-0.3h-4.3
				c-0.1,0-0.3,0.1-0.3,0.3l0.1,7.9l-0.1,7.8c0,0.1,0.1,0.3,0.3,0.3h4.3c0.1,0,0.3-0.1,0.3-0.3v-5c0.9,3.4,3.7,5.6,8,5.6
				c4.6,0,7.4-2.6,7.8-5.6c0-0.1-0.1-0.3-0.2-0.3h-4c-0.1,0-0.3,0.1-0.3,0.3c-0.4,1.8-1.5,2.5-3.1,2.5c-2.3,0-3.5-1.4-3.6-4.4h11.4
				l-0.1,6.9c0,0.1,0.1,0.3,0.3,0.3h4.2c0.1,0,0.3-0.1,0.3-0.3v-6.9c0-3.7,2.5-5.6,5.8-5.6c0.2,0,0.4,0,0.6,0c0.1,0,0.3-0.1,0.3-0.2
				v-3C81.7,9.7,81.6,9.6,81.5,9.5z M59.2,15.7c0.4-2.2,1.5-3.4,3.4-3.4c2.1,0,3.1,1.6,3.2,3.4C65.8,15.7,59.2,15.7,59.2,15.7z"/>
			<path fill="#CA60FF" fill-rule="evenodd" clip-rule="evenodd" d="M79.2,25.7c-1.8,0-3.1-1.3-3.1-3.1c0-1.9,1.2-3.2,3.1-3.2c1.8,0,3,1.2,3,3.2C82.3,24.4,81.1,25.7,79.2,25.7z
				 M79.2,25.1c1.5,0,2.3-0.9,2.3-2.5c0-1.5-0.8-2.5-2.3-2.5s-2.4,0.9-2.4,2.5C76.9,24.1,77.7,25.1,79.2,25.1z M79.3,23.5L79,23
				h-0.3v1.1c0,0.1-0.1,0.1-0.1,0.1H78c-0.1,0-0.1-0.1-0.1-0.1V21c0-0.1,0.1-0.1,0.1-0.1h1.3c0.9,0,1.5,0.4,1.5,1.1
				c0,0.5-0.3,0.8-0.8,1l0.8,1.3c0,0.1,0,0.1-0.1,0.1h-0.8c-0.1,0-0.2-0.1-0.2-0.1L79.3,23.5z M79.2,21.4h-0.6v0.9h0.6
				c0.3,0,0.6-0.1,0.6-0.5C79.8,21.6,79.6,21.4,79.2,21.4z"/>
	<path fill="#CA60FF" fill-rule="evenodd" clip-rule="evenodd" d="M116.6,22.8c-0.7,0-1.2-0.1-1.4-0.3s-0.3-0.7-0.3-1.4v-7.2h3.5v-3.3h-3.5V5.5h-4.1v5.1H108h-0.5H104v15
		l-8.4-12.2l8.2-8.7l0,0v2.8c0,0.2,0.2,0.4,0.4,0.4h3.4c0.2,0,0.4-0.2,0.4-0.4V4.7c0-0.2-0.2-0.4-0.4-0.4h-3.4l0,0l0,0H99l-9.3,9.8
		V4.3h-4.2v21.9h4.2v-6.6l2.9-3l6.6,9.7h4.8h0.4h3.6V13.8h2.7v8.3c0,1.3,0.3,2.4,1,3c0.7,0.7,1.7,1,3,1h4v-3.4L116.6,22.8
		L116.6,22.8z"/>
</svg>